<svg xmlns="http://www.w3.org/2000/svg" width="20" height="20" viewBox="0 0 20 20">
  <title>
    github
  </title>
  <path fill="#314EFF" fill-rule="evenodd" d="M9.82 9.741h-.04c-.61 0-1.168-.03-1.672-.09-.505-.06-.917.057-1.235.349a1.618 1.618 0 0 0-.409.578c-.086.212-.13.431-.13.657 0 .943.333 1.53.997 1.763.664.232 1.48.349 2.45.349h.04c.97 0 1.786-.117 2.45-.349.664-.232.996-.82.996-1.763 0-.226-.04-.445-.12-.657A1.431 1.431 0 0 0 12.73 10c-.319-.292-.73-.408-1.235-.349-.505.06-1.062.09-1.673.09zm-1.653 2.57c-.186 0-.345-.09-.478-.27-.133-.178-.199-.394-.199-.647 0-.265.066-.488.2-.667.132-.18.291-.269.477-.269s.342.09.468.27c.127.178.19.4.19.666 0 .253-.063.469-.19.648-.126.18-.282.269-.468.269zm3.267 0c-.186 0-.342-.09-.468-.27a1.096 1.096 0 0 1-.19-.647c0-.265.064-.488.19-.667.126-.18.282-.269.468-.269.186 0 .346.09.478.27.133.178.2.4.2.666 0 .253-.067.469-.2.648-.132.18-.292.269-.478.269zM9.801 0a9.55 9.55 0 0 0-3.815.767 9.853 9.853 0 0 0-3.108 2.092A9.993 9.993 0 0 0 .777 5.966 9.445 9.445 0 0 0 0 9.781c0 1.354.259 2.626.777 3.815a9.993 9.993 0 0 0 2.101 3.107 9.993 9.993 0 0 0 3.108 2.102 9.445 9.445 0 0 0 3.815.777 9.445 9.445 0 0 0 3.815-.777 9.993 9.993 0 0 0 3.107-2.102 9.993 9.993 0 0 0 2.102-3.107 9.444 9.444 0 0 0 .777-3.815 9.444 9.444 0 0 0-.777-3.815 9.993 9.993 0 0 0-2.102-3.107A9.853 9.853 0 0 0 13.616.767 9.55 9.55 0 0 0 9.8 0zm.896 13.805H8.904c-.186 0-.491-.023-.916-.07a3.498 3.498 0 0 1-1.295-.428c-.438-.24-.82-.611-1.145-1.116-.326-.504-.488-1.222-.488-2.151 0-.425.07-.8.209-1.126.14-.325.329-.614.568-.866-.04-.093-.047-.369-.02-.827.026-.458.14-.946.338-1.464l.648.18c.431.119 1 .418 1.703.896.146-.04.335-.07.568-.09a8.519 8.519 0 0 1 1.454 0c.232.02.422.05.568.09.703-.478 1.271-.777 1.703-.897l.647-.179c.2.518.312 1.006.339 1.464.026.458.02.734-.02.827.239.252.428.541.568.866.14.326.209.7.209 1.126 0 .93-.163 1.647-.488 2.151-.326.505-.707.877-1.146 1.116-.438.239-.87.382-1.294.428-.425.047-.73.07-.917.07z"/>
</svg>
