<svg xmlns="http://www.w3.org/2000/svg" width="20" height="20" viewBox="0 0 20 20">
  <title>
    linkedin
  </title>
  <path fill="#314EFF" fill-rule="evenodd" d="M9.8 0a9.55 9.55 0 0 0-3.814.767 9.853 9.853 0 0 0-3.108 2.092A9.993 9.993 0 0 0 .777 5.966 9.445 9.445 0 0 0 0 9.781c0 1.354.259 2.626.777 3.815a9.993 9.993 0 0 0 2.101 3.107 9.993 9.993 0 0 0 3.108 2.102 9.445 9.445 0 0 0 3.815.777 9.445 9.445 0 0 0 3.815-.777 9.993 9.993 0 0 0 3.107-2.102 9.993 9.993 0 0 0 2.102-3.107 9.444 9.444 0 0 0 .777-3.815 9.444 9.444 0 0 0-.777-3.815 9.993 9.993 0 0 0-2.102-3.107A9.853 9.853 0 0 0 13.616.767 9.55 9.55 0 0 0 9.8 0zM7.41 13.845H5.418V7.47H7.41v6.375zM6.394 6.673c-.305 0-.55-.096-.737-.289a.98.98 0 0 1-.279-.707.93.93 0 0 1 .29-.697c.192-.186.448-.279.766-.279.319 0 .568.093.747.28.18.185.276.417.29.696a.962.962 0 0 1-.29.707c-.192.193-.455.29-.787.29zm8.247 7.172H12.67v-3.546c0-.412-.08-.744-.239-.996-.16-.253-.418-.379-.777-.379-.265 0-.481.08-.647.24-.166.159-.289.325-.369.497a.776.776 0 0 0-.05.23c-.006.086-.01.175-.01.268v3.686H8.587V9.502c0-.398-.004-.767-.01-1.106a33.35 33.35 0 0 0-.03-.926h1.713l.1.877h.04c.132-.213.358-.439.677-.678.318-.239.75-.358 1.295-.358.65 0 1.191.226 1.623.677.432.452.647 1.149.647 2.092v3.765z"/>
</svg>
