<svg xmlns="http://www.w3.org/2000/svg" width="20" height="20" viewBox="0 0 20 20">
  <title>
    mail
  </title>
  <path fill="#314EFF" fill-rule="evenodd" d="M9.8 0a9.55 9.55 0 0 0-3.814.767 9.853 9.853 0 0 0-3.108 2.092A9.993 9.993 0 0 0 .777 5.966 9.445 9.445 0 0 0 0 9.781c0 1.354.259 2.626.777 3.815a9.993 9.993 0 0 0 2.101 3.107 9.993 9.993 0 0 0 3.108 2.102 9.445 9.445 0 0 0 3.815.777 9.445 9.445 0 0 0 3.815-.777 9.993 9.993 0 0 0 3.107-2.102 9.993 9.993 0 0 0 2.102-3.107 9.444 9.444 0 0 0 .777-3.815 9.444 9.444 0 0 0-.777-3.815 9.993 9.993 0 0 0-2.102-3.107A9.853 9.853 0 0 0 13.616.767 9.55 9.55 0 0 0 9.8 0zm4.387 6c.209 0 .313.104.313.313v.58c0 .015-.016.04-.048.071 0 .017-.016.033-.048.049a.185.185 0 0 1-.073.024L9.798 9.689c-.016 0-.024.004-.024.012s-.008.012-.024.012-.024-.008-.024-.024L5.048 7.037C5.016 7.005 5 6.98 5 6.964v-.65c0-.21.104-.314.313-.314h8.874zm.289 1.929c.016.016.024.032.024.048v4.268c0 .048-.016.072-.048.072l-.024.024c-.016 0-.032-.008-.049-.024L11.8 9.544v-.072c0-.032.009-.048.025-.048l2.555-1.495c.033-.032.065-.032.097 0zM11.1 9.93l3.062 3.304c.033.032.033.064 0 .096-.032.032-.056.048-.072.048H5.313a.37.37 0 0 1-.144-.048c-.032-.032-.048-.056-.048-.072 0-.033.008-.057.024-.073l3.424-3.158c.032-.032.064-.04.096-.024l.916.53c.113.064.241.056.386-.024l1.013-.603c.032-.032.072-.024.12.024zm-3.279-.29l-2.7 2.484c-.017.016-.033.024-.049.024h-.024c-.032-.032-.048-.056-.048-.072V8.05c0-.016.016-.04.048-.072.032-.016.056-.016.073 0L7.797 9.52l.048.049c0 .032-.008.056-.024.072z"/>
</svg>
